<svg fill="#000000" xmlns="http://www.w3.org/2000/svg"  viewBox="0 0 24 24" width="480px" height="480px"><path d="M18,1c-2.757,0-5,2.243-5,5c0,1.866,0.819,3.431,1.542,4.811c0.541,1.033,1.052,2.01,1.052,2.824L18,15.993c1.326,0,2.405-1.058,2.405-2.359c0-0.852,0.536-1.9,1.104-3.008C22.208,9.261,23,7.714,23,6C23,3.243,20.757,1,18,1z M18.376,13.664c0,0.206-0.199,0.359-0.405,0.359c-0.206,0-0.375-0.182-0.375-0.388c0-2.634-2.624-4.879-2.624-7.605c0-1.657,1.343-3,3-3s3,1.343,3,3C20.971,8.526,18.376,11.03,18.376,13.664z"/><path d="M20.145 9.972c-.624 1.218-1.269 2.478-1.269 3.692 0 .473-.406.858-.905.858-.482 0-.875-.398-.875-.888 0-1.181-.601-2.308-1.237-3.501-.067-.125-.133-.251-.2-.377L13.414 12l7.512 7.512C20.969 19.347 21 19.178 21 19V8.157C20.757 8.771 20.45 9.376 20.145 9.972zM14.471 6.029c0-1.302.723-2.427 1.781-3.029H5C3.895 3 3 3.895 3 5v14c0 .178.031.347.074.512L14.783 7.802C14.595 7.235 14.471 6.648 14.471 6.029zM8.001 11C6.343 11 5 9.657 5 8c0-1.657 1.343-3 3.001-3 .778 0 1.487.296 2.021.782L9.177 6.626C8.86 6.355 8.45 6.19 8.001 6.19c-1 0-1.81.81-1.81 1.81 0 .999.81 1.81 1.81 1.81.839 0 1.42-.497 1.633-1.192H8.001V7.472l2.828.004C11.075 8.645 10.519 11 8.001 11zM4.488 20.926C4.653 20.969 4.822 21 5 21h14c.178 0 .347-.031.512-.074L12 13.414 4.488 20.926zM18 5A1 1 0 1 0 18 7 1 1 0 1 0 18 5z"/></svg>