<svg fill="#000000" xmlns="http://www.w3.org/2000/svg"  viewBox="0 0 24 24" width="480px" height="480px"><path d="M20,2H4C2.9,2,2,2.9,2,4v16c0,1.1,0.9,2,2,2h16c1.1,0,2-0.9,2-2V4C22,2.9,21.1,2,20,2z M17,17.875c0,0.048-0.019,0.096-0.058,0.125c-0.048,0.048-1.425,1-3.942,1c-3.018,0-3-3.614-3-4v-4H8.174C8.077,11,8,10.923,8,10.826V9.164C8,9.087,8.039,9.029,8.106,9C8.135,8.99,11,7.729,11,5.174C11,5.077,11.077,5,11.174,5h1.653C12.923,5,13,5.077,13,5.174V9h2.826C15.913,9,16,9.077,16,9.174v1.653C16,10.923,15.913,11,15.826,11H13v4c0,0.058-0.092,1.274,1.2,1.274c1.061,0,2.52-0.347,2.53-0.347c0.058-0.039,0.125-0.039,0.174-0.01C16.961,15.946,17,16.004,17,16.071V17.875z"/></svg>