<?xml version="1.0" encoding="UTF-8"?>
<svg xmlns="http://www.w3.org/2000/svg" xmlns:xlink="http://www.w3.org/1999/xlink" width="480pt" height="480pt" viewBox="0 0 480 480" version="1.1">
<g id="surface2959514">
<path style=" stroke:none;fill-rule:nonzero;fill:rgb(0%,0%,0%);fill-opacity:1;" d="M 440 79.980469 C 424.398438 89.238281 393.101562 101.859375 374.699219 105.5 C 374.160156 105.640625 373.71875 105.820312 373.199219 105.960938 C 356.941406 89.921875 334.660156 79.980469 310 79.980469 C 260.300781 79.980469 220 120.28125 220 169.980469 C 220 172.601562 219.78125 177.421875 220 179.980469 C 152.941406 179.980469 101.898438 144.859375 65.300781 99.980469 C 61.320312 109.980469 59.578125 125.78125 59.578125 140.621094 C 59.578125 168.640625 81.480469 196.160156 115.578125 213.21875 C 109.300781 214.839844 102.378906 216 95.179688 216 C 83.558594 216 71.261719 212.941406 60 203.660156 C 60 204 60 204.320312 60 204.679688 C 60 243.839844 101.558594 270.5 138.519531 277.921875 C 131.019531 282.339844 115.898438 282.78125 108.519531 282.78125 C 103.320312 282.78125 84.921875 280.398438 80 279.480469 C 90.28125 311.578125 127.359375 329.621094 162.699219 330.261719 C 135.058594 351.941406 115.878906 359.980469 59.28125 359.980469 L 40 359.980469 C 75.761719 382.898438 121.300781 400 166.941406 400 C 315.539062 400 400 286.738281 400 179.980469 C 400 178.261719 399.960938 174.660156 399.898438 171.039062 C 399.898438 170.679688 400 170.339844 400 169.980469 C 400 169.441406 399.839844 168.921875 399.839844 168.378906 C 399.78125 165.660156 399.71875 163.121094 399.660156 161.800781 C 415.460938 150.398438 429.160156 136.179688 440 119.980469 C 425.5 126.421875 409.941406 130.738281 393.601562 132.699219 C 410.28125 122.699219 433.980469 98.859375 440 79.980469 Z M 440 79.980469 "/>
</g>
</svg>
