<svg fill="#000000" xmlns="http://www.w3.org/2000/svg"  viewBox="0 0 24 24" width="480px" height="480px"><path d="M4,12c0,3.166,1.84,5.903,4.509,7.2L4.692,8.744C4.249,9.738,4,10.84,4,12z M17.407,11c0-0.75-0.353-1.083-0.666-1.611c-0.395-0.666-0.786-1.217-0.786-1.876c0-0.735,0.558-1.419,1.343-1.419c0.035,0,0.069,0.004,0.104,0.006c-1.424-1.304-3.32-2.1-5.402-2.1c-2.795,0-5.254,1.434-6.684,3.607c0.188,0.006,0.365,0.009,0.515,0.009c0.837,0,2.132-0.102,2.132-0.102c0.431-0.025,0.482,0.609,0.051,0.66c0,0-0.434,0.05-0.915,0.076l2.651,7.939l1.751-5.251l-0.984-2.689c-0.431-0.025-0.84-0.076-0.84-0.076c-0.432-0.026-0.381-0.686,0.05-0.66c0,0,1.321,0.102,2.107,0.102c0.837,0,2.132-0.102,2.132-0.102c0.432-0.025,0.482,0.609,0.051,0.66c0,0-0.435,0.05-0.915,0.076L16,16.253l0.799-2.666C17.062,12.521,17.407,11.686,17.407,11z M12.141,12.7L9.74,19.674C10.457,19.885,11.215,20,12,20c0.931,0,1.825-0.161,2.657-0.453c-0.021-0.035-0.041-0.071-0.058-0.11L12.141,12.7z M19.02,8.161c0.035,0.255,0.04,0.528,0.054,0.823c0.04,0.814-0.127,2.046-0.318,2.638c-0.61,1.887-2.426,7.08-2.426,7.08c0.03-0.011,0.097-0.039,0.227-0.128C18.647,17.143,20,14.724,20,12C20,10.608,19.645,9.3,19.02,8.161z"/><path d="M12,3c4.962,0,9,4.037,9,9c0,4.963-4.038,9-9,9c-4.962,0-9-4.038-9-9C3,7.037,7.038,3,12,3 M12,2C6.486,2,2,6.485,2,12c0,5.514,4.486,10,10,10c5.515,0,10-4.487,10-10C22,6.486,17.515,2,12,2L12,2z"/></svg>